Coordinates
version=1
nRows=21
nColumns=33
inDegrees=yes

Units are S.I. units (second, meters, Newtons, ...)
Angles are in degrees.

endheader
time	ground_thorax_rot_x	ground_thorax_rot_y	ground_thorax_rot_z	ground_thorax_tx	ground_thorax_ty	ground_thorax_tz	clav_prot_r	clav_elev_r	scapula_abduction_r	scapula_elevation_r	scapula_upward_rot_r	scapula_winging_r	shoulder_elv_r	plane_of_elev_r	axial_rot_r	elbow_flexion_r	pro_sup_r	wrist_flex_r	wrist_dev_r	clav_prot_l	clav_elev_l	scapula_abduction_l	scapula_elevation_l	scapula_upward_rot_l	scapula_winging_l	shoulder_elv_l	plane_of_elev_l	axial_rot_l	elbow_flexion_l	pro_sup_l	wrist_flex_l	wrist_dev_l
      9.49000000	     27.74224775	     29.74381278	     43.69916546	     -3.90479933	    829.49572289	    -47.47301151	     13.66755280	     34.61327342	     30.70262352	     45.00000000	    -45.00000000	    634.70644932	   1511.10965374	     24.35938988	    179.99999979	   3598.31548901	   -186.13546428	     14.42885580	     15.29244046	     -8.50205947	    -45.00000000	    -38.17830124	     45.00000000	    -45.00000000	   5500.38505416	  -4047.76044112	    131.94360842	   -111.90740028	   2870.71456507	     47.03239991	     14.84806182	    -17.81185732
      9.50000000	     27.50845526	     29.99443620	     44.03177015	     -0.08026112	    828.20881247	    -47.37152214	     13.06203687	     34.51457636	     30.43115259	     45.00000000	    -44.95806920	    635.10736634	   1511.27943343	     24.37419993	    179.99999979	   3598.17331122	   -185.24349103	     14.33536174	     15.35845739	     -8.14622675	    -45.00000000	    -38.27226072	     45.00000000	    -45.00000000	   5500.28927731	  -4047.95341138	    131.88847037	   -112.11496474	   2870.70585373	     47.12781832	     14.83744549	    -17.65546294
      9.51000000	     27.27422880	     30.31031966	     44.46843344	      3.75183623	    826.87636322	    -47.26131371	     13.16289883	     34.54298330	     30.47114992	     45.00000000	    -44.94177374	    635.32420151	   1511.20823833	     24.31490718	    179.99999979	   3598.24307296	   -184.34222844	     14.23449206	     15.26179432	     -8.36887063	    -45.00000000	    -38.15067913	     45.00000000	    -45.00000000	   5500.10101895	  -4048.10062424	    131.94990455	   -112.37855624	   2870.66336347	     47.20940850	     14.75776094	    -17.43804781
      9.52000000	     27.12848345	     30.52824241	     44.80368121	      7.57837205	    825.50112315	    -47.13990652	     13.24906600	     34.61831836	     30.59223167	     45.00000000	    -44.89720975	    635.52042947	   1511.11582627	     24.26718394	    179.99999979	   3598.29602466	   -183.41461351	     14.15051021	     15.18356766	     -8.62307624	    -45.00000000	    -38.01410590	     45.00000000	    -45.00000000	   5499.88462900	  -4048.26565464	    132.03845996	   -112.55714135	   2870.59675846	     47.27691457	     14.67711696	    -17.21676647
      9.53000000	     27.01910654	     30.74880715	     45.10100929	     11.38804235	    824.08650563	    -47.00608232	     13.48607321	     34.73972815	     30.79348591	     45.00000000	    -44.89788240	    635.61347547	   1510.95166962	     24.25310470	    179.99999979	   3598.40482799	   -182.45676585	     14.08244848	     15.03712700	     -8.99981184	    -45.00000000	    -37.77436143	     45.00000000	    -45.00000000	   5499.60869394	  -4048.38778168	    132.11270789	   -112.64882316	   2870.49625727	     47.32065249	     14.59738051	    -16.98483413
      9.54000000	     26.86345570	     30.98933784	     45.40175761	     15.17278753	    822.63628362	    -46.85976766	     13.32677688	     34.77266958	     30.72726601	     45.00000000	    -44.81204091	    635.89324897	   1510.95270549	     24.19795452	    179.99999979	   3598.45491939	   -181.52564190	     13.99599631	     15.00866717	     -9.07149260	    -45.00000000	    -37.68003233	     45.00000000	    -45.00000000	   5499.43173392	  -4048.60846000	    132.16149964	   -112.90658999	   2870.45392738	     47.33776899	     14.54081376	    -16.80617198
      9.55000000	     26.71427287	     31.17713833	     45.71257097	     18.92198537	    821.15676317	    -46.70223076	     13.60276074	     34.87051575	     30.93909096	     45.00000000	    -44.90350207	    636.02691237	   1510.74172171	     24.18489821	    179.99999979	   3598.56340496	   -180.61437991	     13.93351188	     14.87010401	     -9.47163658	    -45.00000000	    -37.49073919	     45.00000000	    -45.00000000	   5499.20274059	  -4048.73860148	    132.29707541	   -113.14948823	   2870.33051617	     47.35197396	     14.42316953	    -16.55203755
      9.56000000	     26.61172233	     31.37716034	     45.96540769	     22.63359750	    819.65198713	    -46.53487205	     13.65434810	     34.95947997	     31.00507524	     45.00000000	    -44.89736376	    636.24942360	   1510.68452327	     24.14766787	    179.99999979	   3598.68757838	   -179.74641579	     13.84198539	     14.80675103	     -9.74061396	    -45.00000000	    -37.31687518	     45.00000000	    -45.00000000	   5498.98132838	  -4048.92972168	    132.37994304	   -113.36892183	   2870.24420899	     47.35846085	     14.33530714	    -16.35964470
      9.57000000	     26.48211711	     31.53676658	     46.01774095	     26.30204644	    818.12747675	    -46.35900218	     12.88578021	     34.87931757	     30.70706026	     45.00000000	    -44.71169332	    637.01525563	   1510.91015208	     23.77940241	    179.99999979	   3598.68287080	   -178.93877656	     13.70570781	     15.13022071	     -9.43311474	    -45.00000000	    -37.49797770	     45.00000000	    -45.00000000	   5498.91939024	  -4049.33967977	    132.30187261	   -113.98942261	   2870.39167200	     47.33462806	     14.31761972	    -16.37799752
      9.58000000	     26.16213068	     31.93284652	     46.68014886	     29.91961386	    816.58666394	    -46.17511498	     13.43433736	     34.88839163	     30.84642252	     45.00000000	    -44.98538916	    636.88129621	   1510.68715808	     23.87727154	    179.99999979	   3598.80881124	   -178.33213453	     13.64132592	     14.82551457	     -9.89520475	    -45.00000000	    -37.16337771	     45.00000000	    -45.00000000	   5498.73683393	  -4049.44760178	    132.49990493	   -114.42271382	   2870.15354411	     47.40402270	     14.14984969	    -16.09348544
      9.59000000	     26.21696570	     32.00654662	     46.75353071	     33.47821460	    815.02996895	    -45.98274029	     13.68836585	     35.10912220	     31.06852744	     45.00000000	    -44.99338372	    636.98182544	   1510.49651703	     23.97476890	    179.99999979	   3599.01418665	   -177.49191145	     13.56251492	     14.63191102	    -10.44191276	    -45.00000000	    -36.84097098	     45.00000000	    -45.00000000	   5498.42220859	  -4049.57922330	    132.66259647	   -114.46730376	   2870.02597945	     47.44341196	     14.03689198	    -15.92466815
      9.60000000	     26.12352516	     32.18351928	     46.94648919	     36.96670066	    813.45474707	    -45.78111798	     13.53818250	     35.16573252	     31.04270209	     45.00000000	    -45.00000000	    637.30601538	   1510.44225539	     23.83992517	    179.99999979	   3599.13385068	   -176.71136229	     13.47454214	     14.64357874	    -10.56866695	    -45.00000000	    -36.74281086	     45.00000000	    -45.00000000	   5498.26607472	  -4049.84619080	    132.74766076	   -114.93085333	   2869.97919881	     47.49158990	     13.96190470	    -15.86226993
      9.61000000	     26.00382348	     32.32147015	     47.10908780	     40.37495572	    811.85681075	    -45.56927870	     13.35586543	     35.21628382	     30.97672547	     45.00000000	    -45.00000000	    637.68303759	   1510.46930266	     23.75033636	    179.99999979	   3599.20696059	   -175.98233047	     13.38943930	     14.67648420	    -10.65963176	    -45.00000000	    -36.66641783	     45.00000000	    -45.00000000	   5498.11605694	  -4050.12884431	    132.81869311	   -115.49824517	   2869.94978900	     47.56372957	     13.88276724	    -15.82411138
      9.62000000	     25.98317667	     32.47094372	     47.21956984	     43.69323307	    810.23202909	    -45.34706359	     13.62122628	     35.33326497	     31.00821165	     45.00000000	    -45.00000000	    637.93817376	   1510.40810131	     23.64413225	    179.99999979	   3599.32121928	   -175.27121505	     13.30486365	     14.63660576	    -11.08910574	    -45.00000000	    -36.39330993	     45.00000000	    -45.00000000	   5497.87601822	  -4050.37123228	    132.97163226	   -115.92314179	   2869.88841364	     47.66522201	     13.75567183	    -15.73636797
      9.63000000	     25.92516975	     32.61886544	     47.37159191	     46.91999892	    808.57693395	    -45.11510303	     13.66118626	     35.39018272	     30.88397709	     45.00000000	    -45.00000000	    638.20220561	   1510.40322590	     23.63861431	    179.99999979	   3599.41530544	   -174.57674734	     13.22291230	     14.58345121	    -11.32320822	    -45.00000000	    -36.23402362	     45.00000000	    -45.00000000	   5497.67996491	  -4050.61202208	    133.12723524	   -116.45927183	   2869.85356475	     47.78696595	     13.60774167	    -15.63553201
      9.64000000	     25.84233761	     32.75435249	     47.56913392	     50.05781956	    806.89034684	    -44.87493840	     13.64187622	     35.44689744	     30.87769404	     45.00000000	    -45.00000000	    638.40873889	   1510.31919148	     23.58756866	    179.99999979	   3599.58653964	   -173.87164700	     13.14388550	     14.51569703	    -11.57765768	    -45.00000000	    -36.04293050	     45.00000000	    -45.00000000	   5497.51786632	  -4050.86472717	    133.24885399	   -116.90634956	   2869.79973170	     47.92608730	     13.49860165	    -15.55414554
      9.65000000	     25.75660151	     32.91228665	     47.74355637	     53.11192288	    805.17435296	    -44.62844975	     13.63727840	     35.47156979	     30.82321443	     45.00000000	    -45.00000000	    638.63333503	   1510.26515938	     23.51525887	    179.99999979	   3599.74216126	   -173.18433995	     13.06887904	     14.45777233	    -11.81456505	    -45.00000000	    -35.84757892	     45.00000000	    -45.00000000	   5497.36111019	  -4051.12026106	    133.36089210	   -117.41031168	   2869.76390184	     48.07586623	     13.38644096	    -15.47559966
      9.66000000	     25.70408419	     33.05368259	     47.85987069	     56.09175724	    803.43103097	    -44.37752672	     13.62521318	     35.49867288	     30.67667360	     45.00000000	    -45.00000000	    638.91922671	   1510.27423843	     23.46555338	    179.99999979	   3599.87661801	   -172.54988087	     12.98735811	     14.40968652	    -12.02190825	    -45.00000000	    -35.67868094	     45.00000000	    -45.00000000	   5497.17625839	  -4051.37762758	    133.50770534	   -117.98170599	   2869.76317735	     48.23252655	     13.25777391	    -15.39314369
      9.67000000	     25.60690362	     33.15212316	     48.01814817	     59.00228771	    801.66579279	    -44.12425041	     13.60023997	     35.53820876	     30.64543385	     45.00000000	    -45.00000000	    639.16613242	   1510.17553792	     23.39408241	    179.99999979	   3600.08298343	   -171.96928097	     12.90022355	     14.36985467	    -12.26149205	    -45.00000000	    -35.51734958	     45.00000000	    -45.00000000	   5497.05234024	  -4051.61351956	    133.62560303	   -118.57594039	   2869.74125304	     48.39683888	     13.16269193	    -15.32315731
      9.68000000	     25.54725922	     33.25964132	     48.12308650	     61.84152002	    799.88636854	    -43.87170663	     13.58890665	     35.56590950	     30.51182449	     45.00000000	    -45.00000000	    639.46181645	   1510.16478689	     23.35295718	    179.99999979	   3600.25173243	   -171.45882152	     12.80753796	     14.31549757	    -12.47398602	    -45.00000000	    -35.34194012	     45.00000000	    -45.00000000	   5496.88189259	  -4051.87059733	    133.78510280	   -119.18005929	   2869.75023570	     48.56034403	     13.03959170	    -15.23904972
      9.69000000	     25.58272092	     33.35406966	     48.10271039	     64.61858225	    798.09255761	    -43.62200852	     13.46620634	     35.71651075	     30.48088046	     45.00000000	    -45.00000000	    639.68350679	   1510.13954922	     23.25439963	    179.99999979	   3600.37461614	   -170.98068684	     12.75505109	     14.33875581	    -12.68112113	    -45.00000000	    -35.18689731	     45.00000000	    -45.00000000	   5496.75867828	  -4052.16098550	    133.83772778	   -119.74311564	   2869.79115469	     48.71420613	     13.02615696	    -15.27200682
